<svg width="76" height="16" fill="none" xmlns="http://www.w3.org/2000/svg"><path d="M1.437 12h2.372V7.144h1.527v-1.8H3.81v-1.32c0-.377.037-.686.11-.929.079-.247.282-.37.611-.37.247 0 .47.056.67.168l.819-1.657c-.238-.19-.53-.34-.878-.449A3.408 3.408 0 004.108.625c-.55 0-1.027.139-1.43.416-.399.273-.706.659-.923 1.157-.212.498-.318 1.083-.318 1.755v1.391H.468v1.8h.969V12zm7.433.208c.81 0 1.532-.299 2.164-.897V12h2.373V5.344h-2.373v.611a2.784 2.784 0 00-.962-.598 3.274 3.274 0 00-1.202-.221c-.642 0-1.212.156-1.71.468a3.235 3.235 0 00-1.163 1.261 3.78 3.78 0 00-.423 1.794c0 .685.147 1.296.442 1.833.295.533.691.953 1.19 1.261a3.138 3.138 0 001.664.455zm.715-2.008c-.434 0-.793-.143-1.08-.43-.285-.29-.428-.656-.428-1.098 0-.438.143-.802.429-1.092.286-.29.645-.436 1.079-.436.437 0 .795.146 1.072.436.282.286.423.65.423 1.092 0 .442-.141.808-.423 1.098-.277.287-.635.43-1.072.43zM15.07 12h2.372V8.523c0-.23.067-.447.202-.65.134-.204.31-.369.526-.495.221-.125.453-.188.696-.188.177 0 .37.035.578.104.208.065.39.152.546.26l.988-1.995a2.232 2.232 0 00-.67-.306 2.772 2.772 0 00-.773-.117c-.403 0-.786.102-1.15.305-.364.2-.679.482-.943.846v-.943h-2.372V12zm8.92.208c.81 0 1.532-.299 2.164-.897V12h2.373V5.344h-2.373v.611a2.783 2.783 0 00-.962-.598 3.274 3.274 0 00-1.202-.221c-.642 0-1.211.156-1.71.468a3.235 3.235 0 00-1.163 1.261 3.78 3.78 0 00-.423 1.794c0 .685.148 1.296.442 1.833.295.533.691.953 1.19 1.261a3.138 3.138 0 001.664.455zm.715-2.008c-.433 0-.793-.143-1.08-.43-.285-.29-.428-.656-.428-1.098 0-.438.143-.802.429-1.092.286-.29.646-.436 1.079-.436.438 0 .795.146 1.072.436.282.286.423.65.423 1.092 0 .442-.141.808-.423 1.098-.277.287-.634.43-1.072.43zm8.248 2.008c.81 0 1.532-.299 2.165-.897V12h2.372V5.344H35.12v.611a2.783 2.783 0 00-.962-.598 3.274 3.274 0 00-1.203-.221c-.641 0-1.211.156-1.71.468a3.235 3.235 0 00-1.163 1.261 3.78 3.78 0 00-.422 1.794c0 .685.147 1.296.442 1.833.294.533.69.953 1.19 1.261a3.138 3.138 0 001.663.455zm.715-2.008c-.433 0-.793-.143-1.079-.43-.286-.29-.429-.656-.429-1.098 0-.438.143-.802.43-1.092.285-.29.645-.436 1.078-.436.438 0 .795.146 1.073.436.281.286.422.65.422 1.092 0 .442-.14.808-.422 1.098-.278.287-.635.43-1.073.43zm4.576 1.8h6.923v-1.794h-2.97l3.23-4.862h-6.63v1.794h2.678L38.246 12zm12.646.208c.598 0 1.144-.15 1.638-.449.494-.303.889-.719 1.183-1.248.3-.532.449-1.146.449-1.839 0-.676-.143-1.28-.43-1.814a3.25 3.25 0 00-1.182-1.26c-.498-.308-1.07-.462-1.716-.462-.42 0-.815.074-1.183.221a2.81 2.81 0 00-.95.598V.82h-2.372V12h2.373v-.689a3.28 3.28 0 001.007.663c.377.156.772.234 1.183.234zm-.728-2.008c-.442 0-.806-.143-1.092-.43-.281-.29-.422-.652-.422-1.085 0-.442.143-.808.429-1.099.29-.294.65-.442 1.079-.442.429 0 .786.148 1.072.442.286.29.43.66.43 1.105 0 .434-.141.793-.423 1.08-.277.285-.635.428-1.073.428zm7.904 2.008c.81 0 1.532-.299 2.164-.897V12h2.373V5.344h-2.373v.611a2.783 2.783 0 00-.962-.598 3.274 3.274 0 00-1.202-.221c-.641 0-1.211.156-1.71.468a3.235 3.235 0 00-1.163 1.261 3.78 3.78 0 00-.422 1.794c0 .685.147 1.296.442 1.833.294.533.69.953 1.189 1.261a3.138 3.138 0 001.664.455zm.715-2.008c-.433 0-.793-.143-1.079-.43-.286-.29-.429-.656-.429-1.098 0-.438.143-.802.429-1.092.286-.29.646-.436 1.079-.436.438 0 .795.146 1.073.436.281.286.422.65.422 1.092 0 .442-.14.808-.422 1.098-.278.287-.635.43-1.073.43zm6.669-6.26c.381 0 .706-.136.975-.41.273-.272.41-.6.41-.981s-.137-.706-.41-.975a1.317 1.317 0 00-.975-.41c-.381 0-.709.137-.982.41a1.328 1.328 0 00-.403.975c0 .381.135.708.403.982.273.272.6.409.982.409zM64.268 12h2.372V5.344h-2.372V12zm7.346 3.575c.923 0 1.68-.154 2.269-.461.589-.304 1.022-.713 1.3-1.229a3.47 3.47 0 00.422-1.703V5.344h-2.372v.611a2.81 2.81 0 00-.95-.598 3.124 3.124 0 00-1.182-.221c-.642 0-1.214.154-1.716.462a3.25 3.25 0 00-1.183 1.26c-.286.534-.43 1.138-.43 1.814 0 .693.148 1.306.443 1.84.299.528.695.944 1.19 1.247a3.125 3.125 0 001.637.449c.412 0 .804-.078 1.177-.234a3.258 3.258 0 001.014-.663V12c0 .438-.15.802-.449 1.092-.299.29-.693.435-1.183.435-.347 0-.678-.075-.994-.227a1.785 1.785 0 01-.722-.605l-1.924.943c.273.637.72 1.118 1.34 1.443.623.33 1.394.494 2.313.494zm.156-5.375c-.438 0-.797-.143-1.079-.43-.277-.285-.416-.645-.416-1.079 0-.446.143-.814.43-1.105a1.44 1.44 0 011.078-.442c.425 0 .78.148 1.066.442.29.29.436.657.436 1.099 0 .433-.143.795-.43 1.085-.281.287-.643.43-1.085.43z" fill="#231E2B"/></svg>