<svg width="96" height="20" viewBox="0 0 96 20" fill="none" xmlns="http://www.w3.org/2000/svg">
<path d="M1.82325 15H4.8345V8.83725H6.77325V6.552H4.8345V4.87725C4.8345 4.39875 4.88125 4.0055 4.97475 3.6975C5.07375 3.384 5.33225 3.22725 5.75025 3.22725C6.06375 3.22725 6.347 3.29875 6.6 3.44175L7.6395 1.338C7.337 1.096 6.96575 0.90625 6.52575 0.76875C6.09125 0.631249 5.654 0.562499 5.214 0.562499C4.5155 0.562499 3.9105 0.738499 3.399 1.0905C2.893 1.437 2.5025 1.9265 2.2275 2.559C1.958 3.1915 1.82325 3.934 1.82325 4.7865V6.552H0.594V8.83725H1.82325V15ZM11.2576 15.264C12.2861 15.264 13.2019 14.8845 14.0049 14.1255V15H17.0161V6.552H14.0049V7.3275C13.6694 7.003 13.2624 6.75 12.7839 6.5685C12.3054 6.3815 11.7966 6.288 11.2576 6.288C10.4436 6.288 9.72039 6.486 9.08789 6.882C8.46089 7.2725 7.96864 7.806 7.61114 8.4825C7.25364 9.159 7.07489 9.918 7.07489 10.7595C7.07489 11.6285 7.26189 12.404 7.63589 13.086C8.00989 13.7625 8.51314 14.296 9.14564 14.6865C9.77814 15.0715 10.4821 15.264 11.2576 15.264ZM12.1651 12.7147C11.6151 12.7147 11.1586 12.5332 10.7956 12.1702C10.4326 11.8017 10.2511 11.337 10.2511 10.776C10.2511 10.2205 10.4326 9.7585 10.7956 9.39C11.1586 9.0215 11.6151 8.83725 12.1651 8.83725C12.7206 8.83725 13.1744 9.0215 13.5264 9.39C13.8839 9.753 14.0626 10.215 14.0626 10.776C14.0626 11.337 13.8839 11.8017 13.5264 12.1702C13.1744 12.5332 12.7206 12.7147 12.1651 12.7147ZM19.128 15H22.1393V10.5862C22.1393 10.2947 22.2245 10.0197 22.395 9.76125C22.5655 9.50275 22.7883 9.29375 23.0633 9.13425C23.3438 8.97475 23.638 8.895 23.946 8.895C24.1715 8.895 24.4163 8.939 24.6803 9.027C24.9443 9.1095 25.1753 9.2195 25.3733 9.357L26.6273 6.82425C26.4018 6.66475 26.1185 6.5355 25.7775 6.4365C25.4365 6.3375 25.1093 6.288 24.7958 6.288C24.2843 6.288 23.7975 6.41725 23.3355 6.67575C22.8735 6.92875 22.4748 7.28625 22.1393 7.74825V6.552H19.128V15ZM30.4498 15.264C31.4783 15.264 32.3941 14.8845 33.1971 14.1255V15H36.2083V6.552H33.1971V7.3275C32.8616 7.003 32.4546 6.75 31.9761 6.5685C31.4976 6.3815 30.9888 6.288 30.4498 6.288C29.6358 6.288 28.9126 6.486 28.2801 6.882C27.6531 7.2725 27.1608 7.806 26.8033 8.4825C26.4458 9.159 26.2671 9.918 26.2671 10.7595C26.2671 11.6285 26.4541 12.404 26.8281 13.086C27.2021 13.7625 27.7053 14.296 28.3378 14.6865C28.9703 15.0715 29.6743 15.264 30.4498 15.264ZM31.3573 12.7147C30.8073 12.7147 30.3508 12.5332 29.9878 12.1702C29.6248 11.8017 29.4433 11.337 29.4433 10.776C29.4433 10.2205 29.6248 9.7585 29.9878 9.39C30.3508 9.0215 30.8073 8.83725 31.3573 8.83725C31.9128 8.83725 32.3666 9.0215 32.7186 9.39C33.0761 9.753 33.2548 10.215 33.2548 10.776C33.2548 11.337 33.0761 11.8017 32.7186 12.1702C32.3666 12.5332 31.9128 12.7147 31.3573 12.7147ZM41.8265 15.264C42.855 15.264 43.7707 14.8845 44.5737 14.1255V15H47.585V6.552H44.5737V7.3275C44.2382 7.003 43.8312 6.75 43.3527 6.5685C42.8742 6.3815 42.3655 6.288 41.8265 6.288C41.0125 6.288 40.2892 6.486 39.6567 6.882C39.0297 7.2725 38.5375 7.806 38.18 8.4825C37.8225 9.159 37.6437 9.918 37.6437 10.7595C37.6437 11.6285 37.8307 12.404 38.2047 13.086C38.5787 13.7625 39.082 14.296 39.7145 14.6865C40.347 15.0715 41.051 15.264 41.8265 15.264ZM42.734 12.7147C42.184 12.7147 41.7275 12.5332 41.3645 12.1702C41.0015 11.8017 40.82 11.337 40.82 10.776C40.82 10.2205 41.0015 9.7585 41.3645 9.39C41.7275 9.0215 42.184 8.83725 42.734 8.83725C43.2895 8.83725 43.7432 9.0215 44.0952 9.39C44.4527 9.753 44.6315 10.215 44.6315 10.776C44.6315 11.337 44.4527 11.8017 44.0952 12.1702C43.7432 12.5332 43.2895 12.7147 42.734 12.7147ZM48.5418 15H57.3281V12.723H53.5578L57.6581 6.552H49.2431V8.829H52.6421L48.5418 15ZM64.593 15.264C65.352 15.264 66.045 15.0743 66.672 14.6947C67.299 14.3097 67.7995 13.7817 68.1735 13.1107C68.553 12.4342 68.7427 11.656 68.7427 10.776C68.7427 9.918 68.5612 9.15075 68.1982 8.47425C67.8352 7.79775 67.3347 7.26425 66.6967 6.87375C66.0642 6.48325 65.3382 6.288 64.5187 6.288C63.9852 6.288 63.4847 6.3815 63.0172 6.5685C62.5497 6.75 62.1482 7.003 61.8127 7.3275V0.81H58.8015V15H61.8127V14.1255C62.1922 14.4885 62.6185 14.769 63.0915 14.967C63.57 15.165 64.0705 15.264 64.593 15.264ZM63.669 12.7147C63.108 12.7147 62.646 12.5332 62.283 12.1702C61.9255 11.8017 61.7467 11.3425 61.7467 10.7925C61.7467 10.2315 61.9282 9.76675 62.2912 9.39825C62.6597 9.02425 63.1162 8.83725 63.6607 8.83725C64.2052 8.83725 64.659 9.02425 65.022 9.39825C65.385 9.76675 65.5665 10.2342 65.5665 10.8007C65.5665 11.3507 65.3877 11.8072 65.0302 12.1702C64.6782 12.5332 64.2245 12.7147 63.669 12.7147ZM73.7005 15.264C74.729 15.264 75.6447 14.8845 76.4477 14.1255V15H79.459V6.552H76.4477V7.3275C76.1122 7.003 75.7052 6.75 75.2267 6.5685C74.7482 6.3815 74.2395 6.288 73.7005 6.288C72.8865 6.288 72.1632 6.486 71.5307 6.882C70.9037 7.2725 70.4115 7.806 70.054 8.4825C69.6965 9.159 69.5177 9.918 69.5177 10.7595C69.5177 11.6285 69.7047 12.404 70.0787 13.086C70.4527 13.7625 70.956 14.296 71.5885 14.6865C72.221 15.0715 72.925 15.264 73.7005 15.264ZM74.608 12.7147C74.058 12.7147 73.6015 12.5332 73.2385 12.1702C72.8755 11.8017 72.694 11.337 72.694 10.776C72.694 10.2205 72.8755 9.7585 73.2385 9.39C73.6015 9.0215 74.058 8.83725 74.608 8.83725C75.1635 8.83725 75.6172 9.0215 75.9692 9.39C76.3267 9.753 76.5055 10.215 76.5055 10.776C76.5055 11.337 76.3267 11.8017 75.9692 12.1702C75.6172 12.5332 75.1635 12.7147 74.608 12.7147ZM83.0723 4.77C83.5563 4.77 83.9688 4.59675 84.3098 4.25025C84.6563 3.90375 84.8296 3.4885 84.8296 3.0045C84.8296 2.5205 84.6563 2.108 84.3098 1.767C83.9688 1.4205 83.5563 1.24725 83.0723 1.24725C82.5883 1.24725 82.1731 1.4205 81.8266 1.767C81.4856 2.108 81.3151 2.5205 81.3151 3.0045C81.3151 3.4885 81.4856 3.90375 81.8266 4.25025C82.1731 4.59675 82.5883 4.77 83.0723 4.77ZM81.5708 15H84.5821V6.552H81.5708V15ZM90.8948 19.5375C92.0663 19.5375 93.026 19.3423 93.774 18.9518C94.522 18.5668 95.072 18.047 95.424 17.3925C95.7815 16.7435 95.9603 16.023 95.9603 15.231V6.552H92.949V7.3275C92.6135 7.003 92.212 6.75 91.7445 6.5685C91.2825 6.3815 90.782 6.288 90.243 6.288C89.429 6.288 88.703 6.48325 88.065 6.87375C87.427 7.26425 86.9265 7.79775 86.5635 8.47425C86.2005 9.15075 86.019 9.918 86.019 10.776C86.019 11.656 86.206 12.4342 86.58 13.1107C86.9595 13.7817 87.4628 14.3097 88.0898 14.6947C88.7223 15.0743 89.4153 15.264 90.1688 15.264C90.6913 15.264 91.189 15.165 91.662 14.967C92.1405 14.769 92.5695 14.4885 92.949 14.1255V15C92.949 15.5555 92.7593 16.0175 92.3798 16.386C92.0003 16.7545 91.4998 16.9388 90.8783 16.9388C90.4383 16.9388 90.0175 16.8425 89.616 16.65C89.22 16.4575 88.9148 16.2018 88.7003 15.8828L86.2583 17.079C86.6048 17.8875 87.1713 18.498 87.9578 18.9105C88.7498 19.3285 89.7288 19.5375 90.8948 19.5375ZM91.0928 12.7147C90.5373 12.7147 90.0808 12.5332 89.7233 12.1702C89.3713 11.8072 89.1953 11.3507 89.1953 10.8007C89.1953 10.2342 89.3768 9.76675 89.7398 9.39825C90.1028 9.02425 90.5593 8.83725 91.1093 8.83725C91.6483 8.83725 92.0993 9.02425 92.4623 9.39825C92.8308 9.76675 93.015 10.2315 93.015 10.7925C93.015 11.3425 92.8335 11.8017 92.4705 12.1702C92.113 12.5332 91.6538 12.7147 91.0928 12.7147Z" fill="black"/>
</svg>
