<svg width="21" height="30" viewBox="0 0 21 30" fill="none" xmlns="http://www.w3.org/2000/svg">
<path d="M5.25 30.0001C8.148 30.0001 10.5 27.7506 10.5 24.979V19.9578H5.25C2.352 19.9578 0 22.2073 0 24.979C0 27.7506 2.352 30.0001 5.25 30.0001Z" fill="#0ACF83"/>
<path d="M0 14.9999C0 12.2633 2.352 10.0422 5.25 10.0422H10.5V19.9575H5.25C2.352 19.9575 0 17.7365 0 14.9999Z" fill="#A259FF"/>
<path d="M0 5.02119C0 2.24949 2.352 0 5.25 0H10.5V10.0424H5.25C2.352 10.0424 0 7.79288 0 5.02119Z" fill="#F24E1E"/>
<path d="M10.5 0H15.75C18.648 0 21 2.24949 21 5.02119C21 7.79288 18.648 10.0424 15.75 10.0424H10.5V0Z" fill="#FF7262"/>
<path d="M21 14.9999C21 17.7365 18.648 19.9575 15.75 19.9575C12.852 19.9575 10.5 17.7365 10.5 14.9999C10.5 12.2633 12.852 10.0422 15.75 10.0422C18.648 10.0422 21 12.2633 21 14.9999Z" fill="#1ABCFE"/>
</svg>
