<svg width="35" height="11" viewBox="0 0 35 11" fill="none" xmlns="http://www.w3.org/2000/svg">
<path d="M17.6369 3.24155C16.2931 3.24155 15.3226 4.321 15.3226 5.93664C15.3226 7.55229 16.4137 8.63174 17.7574 8.63174C18.5729 8.63174 19.285 8.23664 19.7329 7.57345L18.8026 6.91026C18.5557 7.24186 18.1824 7.43235 17.7632 7.43235C17.1775 7.43235 16.6836 7.05842 16.4998 6.45873H19.9167C19.9454 6.2894 19.9569 6.12008 19.9569 5.93664C19.9511 4.31394 18.9864 3.24155 17.6369 3.24155ZM16.4826 5.4075C16.6377 4.80781 17.0511 4.43388 17.6369 4.43388C18.2226 4.43388 18.6361 4.80781 18.7912 5.4075H16.4826ZM30.7587 3.24155C29.415 3.24155 28.4445 4.321 28.4445 5.93664C28.4445 7.55229 29.5356 8.63174 30.8793 8.63174C31.6948 8.63174 32.4069 8.23664 32.8548 7.57345L31.9245 6.91026C31.6776 7.24186 31.3043 7.43235 30.8851 7.43235C30.2993 7.43235 29.8055 7.05842 29.6217 6.45873H33.0386C33.0672 6.2894 33.0788 6.12008 33.0788 5.93664C33.0788 4.31394 32.1083 3.24155 30.7587 3.24155ZM29.6102 5.4075C29.7653 4.80781 30.1788 4.43388 30.7645 4.43388C31.3502 4.43388 31.7637 4.80781 31.9188 5.4075H29.6102ZM24.8554 5.93664C24.8554 6.83266 25.332 7.43235 26.0728 7.43235C26.5724 7.43235 26.9514 7.15014 27.1466 6.69861L28.0827 7.3618C27.6979 8.15198 26.9686 8.63174 26.0728 8.63174C24.7232 8.63174 23.7585 7.55229 23.7585 5.93664C23.7585 4.321 24.729 3.24155 26.0728 3.24155C26.9686 3.24155 27.6922 3.72131 28.0827 4.51149L27.1466 5.17468C26.9514 4.71609 26.5782 4.44094 26.0728 4.44094C25.332 4.43388 24.8554 5.03358 24.8554 5.93664ZM34.9049 1.59063V8.47652H33.8081V1.59063H34.9049ZM4.95143 0.842773L9.45364 10.4238H0.449219L4.95143 0.842773ZM16.2127 1.59063L12.836 8.7799L9.45942 1.59063H10.7285L12.8418 6.0848L14.9551 1.59063H16.2127ZM23.391 3.38971V4.84309C23.2703 4.80075 23.1383 4.77253 23.0005 4.77253C22.2942 4.77253 21.783 5.37223 21.783 6.26824V8.48358H20.6862V3.38971H21.783V4.76548C21.783 4.00351 22.5008 3.38971 23.391 3.38971Z" fill="black"/>
</svg>
