<svg width="32" height="32" viewBox="0 0 32 32" fill="none" xmlns="http://www.w3.org/2000/svg">
<path d="M32 26C32 29.3137 29.3137 32 26 32H6C2.68629 32 0 29.3137 0 26V6C0 2.68629 2.68629 0 6 0H26C29.3137 0 32 2.68629 32 6V26Z" fill="url(#paint0_linear)"/>
<path d="M12.85 26V15.55H10.95V13.175L12.85 12.575V11.675C12.85 9.975 13.1917 8.73333 13.875 7.95C14.575 7.16667 15.725 6.775 17.325 6.775C17.8917 6.775 18.4167 6.81667 18.9 6.9C19.3833 6.98333 19.7833 7.06667 20.1 7.15V9.8H18.05C17.4833 9.8 17.0917 9.93333 16.875 10.2C16.675 10.4667 16.575 10.8917 16.575 11.475V12.575H19.975V15.55H16.575V26H12.85Z" fill="white"/>
<defs>
<linearGradient id="paint0_linear" x1="69.7778" y1="26.3111" x2="100" y2="56" gradientUnits="userSpaceOnUse">
<stop stop-color="#52CAAF"/>
<stop offset="1" stop-color="#70D4BE"/>
</linearGradient>
</defs>
</svg>
