<?xml version="1.0" encoding="UTF-8"?>
<svg xmlns="http://www.w3.org/2000/svg" xmlns:xlink="http://www.w3.org/1999/xlink" width="32pt" height="32pt" viewBox="0 0 32 32" version="1.1">
<defs>
<linearGradient id="linear0" gradientUnits="userSpaceOnUse" x1="350" y1="347" x2="180" y2="180" gradientTransform="matrix(-0.177778,-0.000000000000000022,0.000000000000000022,-0.177778,64,64)">
<stop offset="0" style="stop-color:rgb(36.470588%,82.745098%,55.294118%);stop-opacity:1;"/>
<stop offset="1" style="stop-color:rgb(43.921569%,83.137255%,74.509804%);stop-opacity:1;"/>
</linearGradient>
</defs>
<g id="surface1">
<path style=" stroke:none;fill-rule:nonzero;fill:url(#linear0);" d="M 24.890625 32 L 7.109375 32 C 3.183594 32 0 28.816406 0 24.890625 L 0 7.109375 C 0 3.183594 3.183594 0 7.109375 0 L 24.890625 0 C 28.816406 0 32 3.183594 32 7.109375 L 32 24.890625 C 32 28.816406 28.816406 32 24.890625 32 Z M 24.890625 32 "/>
<path style=" stroke:none;fill-rule:nonzero;fill:rgb(100%,100%,100%);fill-opacity:1;" d="M 5.925781 26.132812 L 5.925781 17.960938 L 4.441406 17.960938 L 4.441406 16.101562 L 5.925781 15.632812 L 5.925781 14.929688 C 5.925781 13.597656 6.195312 12.628906 6.730469 12.015625 C 7.277344 11.402344 8.175781 11.09375 9.425781 11.09375 C 9.871094 11.09375 10.28125 11.128906 10.660156 11.191406 C 11.039062 11.257812 11.351562 11.324219 11.597656 11.386719 L 11.597656 13.460938 L 9.996094 13.460938 C 9.550781 13.460938 9.246094 13.566406 9.074219 13.773438 C 8.917969 13.984375 8.839844 14.316406 8.839844 14.773438 L 8.839844 15.632812 L 11.5 15.632812 L 11.5 17.960938 L 8.839844 17.960938 L 8.839844 26.132812 Z M 5.925781 26.132812 "/>
</g>
</svg>
